<?xml version="1.0" encoding="utf-8"?>
<!-- Generator: Adobe Illustrator 19.0.0, SVG Export Plug-In . SVG Version: 6.00 Build 0)  -->
<svg version="1.1" id="nic" xmlns="http://www.w3.org/2000/svg" xmlns:xlink="http://www.w3.org/1999/xlink" x="0px" y="0px"
	 viewBox="0 0 2361.2 1146.1" style="enable-background:new 0 0 2361.2 1146.1;" xml:space="preserve">
<style type="text/css">
	.st0{fill:#FFFFFF;}
</style>
<path id="XMLID_10_" class="st0" d="M1769.5,178.2h174c208.2,63,214.4,299,214.4,299h19.5v-299h52v-46h-2097v46h75.4
	c61.1,8,61.6,60.9,61.6,60.9v656.6c-15,62.1-137,64.2-137,64.2v54.3h2097v-52h-52v-286h-18.5c-37.3,259-221.6,286-221.6,286h-162.6
	c-221.6-70-215.4-378.8-215.4-378.8C1559.2,209.1,1769.5,178.2,1769.5,178.2z M2142.8,171.2c0,0-6.7,52-20.2,82h-14.5
	c0,0-72.5-67-100.5-82H2142.8z M2113.3,889.2h10.4c0,0,34.2,47.5,35.2,73.4l-140.3,2.9C2018.5,965.5,2061.5,946.2,2113.3,889.2z
	 M396.2,959.9c-91.1-9.3-95.9-83.9-95.9-83.9V214.3l561.1,747.2L396.2,959.9z M894.3,809.7L413,170.2l376.3,0.5
	c102.5,0,105,77.7,105,77.7V809.7z M1144.3,891.5c0,0-2.4,70.7-58.4,70.7H923.3V248.4c0,0,20.8-64.2,107.8-70.2h51.8
	c0,0,59.5-3.3,61.5,55.7V891.5z M1629.6,962.2h-285.8c-60.1-1-70.5-61.4-70.5-61.4V237c2-62.1,63.2-66.8,63.2-66.8l305.4,0.5
	c-218.5,96.3-225.7,399.6-225.7,399.6C1404.8,854.7,1629.6,962.2,1629.6,962.2z"/>
</svg>
